# xmcd CD database file
#
# Track frame offsets:
#	150
#	28198
#	50645
#	85127
#	114598
#	132542
#	162928
#	207446
#	223962
#	238854
#	249022
#	271163
#
# Disc length: 3845 seconds
#
# Revision: 0
# Processed by: cddbd v1.5PL3 Copyright (c) Steve Scherf et al.
# Submitted via: CDex 1.50
#
DISCID=b10f030c
DTITLE=Mighty Mo Rogers - Black Paris Blues
DYEAR=1900
DGENRE=Blues
TTITLE0=Black Paris Blues
TTITLE1=Deja Blues
TTITLE2=Sweet Soul Music
TTITLE3=Goin' down slow
TTITLE4=Prisonners of War
TTITLE5=Picasso Blue
TTITLE6=The boy who stole the blues
TTITLE7=The art of smoking
TTITLE8=Money can't buy you class
TTITLE9=White man's burden
TTITLE10=I believe in evolution
TTITLE11=Blues is my wailin' wall
EXTD=
EXTT0=
EXTT1=
EXTT2=
EXTT3=
EXTT4=
EXTT5=
EXTT6=
EXTT7=
EXTT8=
EXTT9=
EXTT10=
EXTT11=
PLAYORDER=
